C:\Users\r0593348\3dpredictsim\Results\batch_windlass\Pog_s1_tmt_bCst_d00_k1500_WL30_ig24_act_TTC_GRF.mot
nRows=12
nColumns=19

name C:\Users\r0593348\3dpredictsim\Results\batch_windlass\Pog_s1_tmt_bCst_d00_k1500_WL30_ig24_act_TTC_GRF.mot
datacolumns 19
datarows 12
range 0.6122674923 0.7469663406
endheader
time 	ground_force_vx	ground_force_vy	ground_force_vz	ground_force_px	ground_force_py	ground_force_pz	1_ground_force_vx	1_ground_force_vy	1_ground_force_vz	1_ground_force_px	1_ground_force_py	1_ground_force_pz	ground_torque_x	ground_torque_y	ground_torque_z	1_ground_torque_x	1_ground_torque_y	1_ground_torque_z
        0.6122674923	       69.9852382176	      330.7625082958	        4.8367990084	        0.4113773995	        0.0000000000	        0.0250953883	      -43.8046826207	       31.3189108679	       -9.2216797800	        0.9423783312	        0.0000000000	       -0.0563622126	        0.0000000000	        0.0000000000	        0.0000000000	        0.0000000000	        0.0000000000	        0.0000000000	
        0.6245128421	       38.5247309677	      225.2628166925	       10.4420306564	        0.4236343924	        0.0000000000	        0.0182167030	     -113.7146205913	       98.4710286147	      -29.0794449177	        0.9533886977	        0.0000000000	       -0.0540266334	        0.0000000000	        0.0000000000	        0.0000000000	        0.0000000000	        0.0000000000	        0.0000000000	
        0.6367581920	       28.1009752793	      178.6658718379	       14.8914512526	        0.4265712011	        0.0000000000	        0.0165689447	     -101.2424844666	      257.0180326576	      -31.2147515482	        0.9609381728	        0.0000000000	       -0.0524070018	        0.0000000000	        0.0000000000	        0.0000000000	        0.0000000000	        0.0000000000	        0.0000000000	
        0.6490035418	       24.5165908831	      127.8777323737	       15.5905462402	        0.4270273343	        0.0000000000	        0.0167341180	      -72.0481382314	      515.9172735851	        0.6484089437	        0.9658478322	        0.0000000000	       -0.0520147093	        0.0000000000	        0.0000000000	        0.0000000000	        0.0000000000	        0.0000000000	        0.0000000000	
        0.6612488916	       15.7535763028	       70.6077045813	        9.2618279993	        0.4275262433	        0.0000000000	        0.0164226267	     -105.0030761870	      797.4053620202	       23.2049218424	        0.9764402218	        0.0000000000	       -0.0538455494	        0.0000000000	        0.0000000000	        0.0000000000	        0.0000000000	        0.0000000000	        0.0000000000	
        0.6734942415	       -5.5171121354	       17.3451802350	        1.0326388523	        0.4238722806	        0.0000000000	        0.0155072893	     -143.5967476954	      943.3963450616	       31.8652977618	        0.9842872060	        0.0000000000	       -0.0552761113	        0.0000000000	        0.0000000000	        0.0000000000	        0.0000000000	        0.0000000000	        0.0000000000	
        0.6857395913	        0.0113764371	       -0.0091171182	        0.0014900389	        0.0000000000	        0.0000000000	        0.0000000000	     -150.0533818507	      968.2661139166	       33.6532304966	        0.9903257695	        0.0000000000	       -0.0562459089	        0.0000000000	        0.0000000000	        0.0000000000	        0.0000000000	        0.0000000000	        0.0000000000	
        0.6979849412	        0.3546025726	       -0.2440476660	        0.0516781093	        0.0000000000	        0.0000000000	        0.0000000000	     -144.1831430215	      925.1870801745	       28.4071145977	        0.9953313313	        0.0000000000	       -0.0567499573	        0.0000000000	        0.0000000000	        0.0000000000	        0.0000000000	        0.0000000000	        0.0000000000	
        0.7102302910	       -2.1687855073	        1.3333788100	       -0.2960882469	        0.0000000000	        0.0000000000	        0.0000000000	     -128.0818495947	      864.7978822521	       23.6732573854	        1.0000200249	        0.0000000000	       -0.0566008409	        0.0000000000	        0.0000000000	        0.0000000000	        0.0000000000	        0.0000000000	        0.0000000000	
        0.7224756409	       -0.1169535882	        0.0681413476	       -0.0136213744	        0.0000000000	        0.0000000000	        0.0000000000	     -113.5787875990	      811.2486929883	       20.2447112858	        1.0052525233	        0.0000000000	       -0.0561409490	        0.0000000000	        0.0000000000	        0.0000000000	        0.0000000000	        0.0000000000	        0.0000000000	
        0.7347209907	       -0.2478336048	        0.1386589679	       -0.0246052926	        0.0000000000	        0.0000000000	        0.0000000000	      -98.5649254889	      757.8663574197	       20.1887255117	        1.0105325299	        0.0000000000	       -0.0555607443	        0.0000000000	        0.0000000000	        0.0000000000	        0.0000000000	        0.0000000000	        0.0000000000	
        0.7469663406	       -0.1613628760	        0.0864711556	       -0.0146857277	        0.0000000000	        0.0000000000	        0.0000000000	      -85.6823826680	      710.7240317023	       20.4918848686	        1.0152198035	        0.0000000000	       -0.0550786547	        0.0000000000	        0.0000000000	        0.0000000000	        0.0000000000	        0.0000000000	        0.0000000000	
